# xmcd
#
# Track frame offsets: 
#        150
#        19222
#        42264
#        58486
#        84810
#        104848
#        122188
#        163440
#        179025
#        199089
#        218153
#        233976
#        255104
#        278128
#        295351
#        320411
#        344824
#
# Disc length: 4783 seconds
#
# Revision: 0
# Processed by: cddbd v1.5.2PL0 Copyright (c) Steve Scherf et al.
# Submitted via: ExactAudioCopy v0.95a5
#
DISCID=1212ad11
DTITLE=Various Artist - Akella Presents - Rockin' Blues  vol.28  CD2
DYEAR=2011
DGENRE=Blues
TTITLE0=Altar Of Love - IMPERIAL CROWNS
TTITLE1=Condescending lies - VDELLI
TTITLE2=Rocking Chair - SIDEBURN
TTITLE3=Spell Of Winter - JAY JESSE JOHNSON
TTITLE4=Mighty Cool - WOLFPIN
TTITLE5=Street To Street - RHINO BUCKET
TTITLE6=What Do You Know - MARK REECE
TTITLE7=Low Down Dirty Blues - PAT McMANUS
TTITLE8=Take Me Home - JON AMOR
TTITLE9=Used To Be - GLENN KAISER BAND
TTITLE10=11 Months and 29 Days - DANNY SHIRLEY
TTITLE11=Morefun Boogie - BACON FAT
TTITLE12=New Orleans - BACK TO BLUE
TTITLE13=Good God - SWAMPdaWAMP
TTITLE14=Change - GRAVY
TTITLE15=Cold One Closin' In - MARK SELBY
TTITLE16=Wishing Well - DEREK MILLER
EXTD=
EXTT0=
EXTT1=
EXTT2=
EXTT3=
EXTT4=
EXTT5=
EXTT6=
EXTT7=
EXTT8=
EXTT9=
EXTT10=
EXTT11=
EXTT12=
EXTT13=
EXTT14=
EXTT15=
EXTT16=
PLAYORDER=
